<?xml version="1.0" encoding="UTF-8"?>
<svg version="1.1" xmlns="http://www.w3.org/2000/svg" width="2000" height="2000">
<path d="M0 0 C1.29533409 -0.00639748 1.29533409 -0.00639748 2.61683655 -0.01292419 C3.56132156 -0.01247101 4.50580658 -0.01201782 5.47891235 -0.0115509 C6.47593674 -0.01490952 7.47296112 -0.01826813 8.50019836 -0.02172852 C11.80382526 -0.03124563 15.1074015 -0.03318203 18.41104126 -0.03425598 C20.70406109 -0.03746808 22.99708071 -0.04083212 25.2901001 -0.04434204 C30.10027542 -0.05033525 34.91043278 -0.05218175 39.72061157 -0.05158997 C45.88671728 -0.05148834 52.05270783 -0.0651398 58.21878624 -0.08236217 C62.95595836 -0.09347649 67.69310259 -0.09550935 72.43028641 -0.09498024 C74.70368471 -0.09616124 76.97708371 -0.10058973 79.25046921 -0.10831261 C82.42956371 -0.11810068 85.60840763 -0.11523899 88.7875061 -0.10920715 C89.72794266 -0.11482666 90.66837921 -0.12044617 91.63731384 -0.12623596 C96.11984076 -0.10460458 99.69479598 -0.00107429 103.76260376 2.13371277 C103.77069061 3.42330902 103.77877747 4.71290527 103.78710938 6.0415802 C103.86459696 18.19533538 103.95234307 30.34897897 104.05013084 42.50258827 C104.10007473 48.7508637 104.14640515 54.99912237 104.18447876 61.2474823 C104.22135536 67.27758214 104.26772217 73.30754119 104.32066727 79.3375206 C104.33919851 81.63797409 104.35431115 83.93845775 104.36594772 86.23895645 C104.3828316 89.46134607 104.41187252 92.68341415 104.4437561 95.90568542 C104.44591629 96.85659058 104.44807648 97.80749573 104.45030212 98.78721619 C104.52021762 105.68290433 104.52021762 105.68290433 106.76260376 112.13371277 C111.07730065 115.0457072 116.59004708 114.43350152 121.61416626 114.43669128 C122.60172913 114.44513062 123.58929199 114.45356995 124.60678101 114.46226501 C127.86706022 114.48802803 131.12724888 114.50018061 134.38760376 114.51261902 C136.65535192 114.52879603 138.92309312 114.54597624 141.19082642 114.56411743 C147.15978784 114.60980076 153.1287586 114.64460535 159.09780884 114.67631531 C168.65206395 114.72818872 178.20621648 114.79338757 187.76034546 114.86453056 C191.09784036 114.88734718 194.43532231 114.90362959 197.77285767 114.91925049 C199.8189203 114.93265945 201.86498159 114.94627445 203.91104126 114.96012878 C205.30295685 114.96404884 205.30295685 114.96404884 206.72299194 114.9680481 C210.86117223 115.00132414 214.72806348 115.08636195 218.76260376 116.13371277 C219.53601353 122.74342262 219.89765804 129.22651903 219.84439087 135.87858582 C219.84132431 136.79539124 219.83825775 137.71219666 219.83509827 138.65678406 C219.82799785 140.62808824 219.81863743 142.59938537 219.80720329 144.57066917 C219.78967238 147.69445645 219.77947038 150.81819163 219.77128601 153.9420166 C219.74694892 162.81691907 219.711193 171.6917506 219.66665649 180.5665741 C219.63983993 186.01160029 219.62282193 191.45658672 219.6117878 196.90166664 C219.60559439 198.96967356 219.59560967 201.03767284 219.58170891 203.10564232 C219.56243897 205.99615394 219.55558964 208.886456 219.55142212 211.77702332 C219.54266052 212.62446609 219.53389893 213.47190887 219.52487183 214.34503174 C219.53301059 219.30326577 219.93280534 223.49384386 221.76260376 228.13371277 C224.52375475 229.05409643 226.18900663 229.26582325 229.03796387 229.28520203 C229.90993408 229.29354568 230.7819043 229.30188934 231.68029785 229.31048584 C233.11105148 229.31676247 233.11105148 229.31676247 234.57070923 229.32316589 C236.08087616 229.33560585 236.08087616 229.33560585 237.62155151 229.34829712 C239.81013282 229.36570679 241.99873287 229.38087109 244.1873436 229.39407349 C247.65031564 229.41508731 251.11319399 229.44211236 254.57611084 229.4707489 C261.92990585 229.53047597 269.28374447 229.5826044 276.63760376 229.63371277 C285.15114726 229.69294248 293.66464471 229.75526638 302.1781044 229.82559204 C305.59092992 229.85216024 309.00376008 229.8729804 312.41662598 229.89360046 C314.50965597 229.91020614 316.60268388 229.92707822 318.69570923 229.94425964 C320.12039017 229.95053627 320.12039017 229.95053627 321.57385254 229.9569397 C325.75826675 229.99672198 329.68438452 230.06956917 333.76260376 231.13371277 C334.62839116 237.08271109 334.8960407 242.82868064 334.86026001 248.83512878 C334.85879974 249.77114929 334.85733948 250.7071698 334.85583496 251.67155457 C334.85204823 253.69090877 334.84595224 255.71025973 334.83776855 257.72960091 C334.82493844 260.92884105 334.8184725 264.12803944 334.81362915 267.32730103 C334.80223408 274.11695707 334.78299017 280.90657855 334.76260376 287.69621277 C334.7389736 295.57061461 334.71859308 303.44499657 334.70666504 311.31942558 C334.70020121 314.4651951 334.68769494 317.61090338 334.67495728 320.75665283 C334.67132352 322.69166511 334.66797195 324.62667795 334.66494751 326.56169128 C334.65978119 327.43097763 334.65461487 328.30026398 334.64929199 329.19589233 C334.64888027 333.95139478 334.96435268 338.44381507 335.76260376 343.13371277 C340.74340902 344.43268255 345.70417723 344.30061821 350.81362915 344.32316589 C351.82230545 344.3314592 352.83098175 344.3397525 353.870224 344.34829712 C356.05658988 344.36566983 358.24297409 344.38084419 360.42936897 344.39407349 C363.88802526 344.41513182 367.3465894 344.44215121 370.80519104 344.4707489 C379.39306038 344.54052154 387.98099558 344.59999141 396.56893921 344.65977478 C403.8296189 344.71070318 411.09024867 344.76552462 418.35085869 344.82559204 C421.7609649 344.85217593 425.17107578 344.8729829 428.58122253 344.89360046 C430.66780827 344.91020225 432.75439189 344.92707399 434.8409729 344.94425964 C436.26633362 344.95053627 436.26633362 344.95053627 437.7204895 344.9569397 C438.59383438 344.96528336 439.46717926 344.97362701 440.36698914 344.98222351 C441.12373963 344.98737724 441.88049013 344.99253098 442.66017246 344.99784088 C444.80233838 345.13628066 446.70157102 345.54771756 448.76260376 346.13371277 C449.58209405 352.58682252 449.91285062 358.87838213 449.9203186 365.37931824 C449.92539932 366.36092422 449.93048004 367.34253021 449.93571472 368.35388184 C449.94635205 370.46870429 449.95499779 372.58353754 449.96183395 374.6983757 C449.97369288 378.04367078 449.993158 381.38884079 450.01495361 384.73408508 C450.07637397 394.23932273 450.1307718 403.74454197 450.16397095 413.24992371 C450.18486341 419.07645525 450.22010624 424.90274901 450.26472855 430.72914505 C450.27891376 432.94834227 450.28761664 435.16758145 450.29078293 437.38682175 C450.29566784 440.47962841 450.3187577 443.57179666 450.34609985 446.66447449 C450.34309372 447.58397385 450.34008759 448.50347321 450.33699036 449.45083618 C450.34808334 450.29178329 450.35917633 451.13273041 450.37060547 451.99916077 C450.37557069 453.09469174 450.37557069 453.09469174 450.38063622 454.21235466 C450.88465973 456.74767391 451.6842843 457.62101026 453.76260376 459.13371277 C455.75891679 459.58650713 455.75891679 459.58650713 457.98654175 459.52571106 C458.84720749 459.53680405 459.70787323 459.54789703 460.59461975 459.55932617 C461.53596268 459.55632004 462.4773056 459.5533139 463.44717407 459.55021667 C464.44098587 459.55880203 465.43479767 459.56738739 466.45872498 459.57623291 C469.75279751 459.60137899 473.04656885 459.60568082 476.34072876 459.61027527 C478.6289665 459.62458242 480.9171956 459.64033891 483.20541382 459.65748596 C489.23941321 459.69942077 495.27335913 459.72435708 501.3074646 459.74497986 C510.95191008 459.78072651 520.59622301 459.84191473 530.24053192 459.90346909 C533.60785396 459.92251858 536.97514082 459.93428116 540.34249878 459.94490051 C542.4151517 459.95511767 544.48780393 459.965476 546.56045532 459.97599792 C547.49370132 459.97704025 548.42694733 459.97808258 549.38847351 459.97915649 C554.28451541 460.00977743 558.93482961 460.30701937 563.76260376 461.13371277 C565.06157354 466.11451803 564.9295092 471.07528624 564.95205688 476.18473816 C564.96035019 477.19341446 564.96864349 478.20209076 564.97718811 479.24133301 C564.99456082 481.42769889 565.00973518 483.6140831 565.02296448 485.80047798 C565.04402281 489.25913427 565.07104221 492.71769841 565.09963989 496.17630005 C565.16941253 504.76416938 565.2288824 513.35210459 565.28866577 521.94004822 C565.33959417 529.20072791 565.39441561 536.46135768 565.45448303 543.7219677 C565.48106692 547.13207391 565.50187389 550.54218479 565.52249146 553.95233154 C565.53909324 556.03891728 565.55596498 558.1255009 565.57315063 560.21208191 C565.57733505 561.16232239 565.58151947 562.11256287 565.58583069 563.09159851 C565.59417435 563.96494339 565.60251801 564.83828827 565.6111145 565.73809814 C565.61626823 566.49484864 565.62142197 567.25159914 565.62673187 568.03128147 C565.76535358 570.17626251 566.21715951 572.06006178 566.76260376 574.13371277 C595.23078457 574.17932093 623.6989608 574.21472332 652.16717099 574.23584343 C655.52678145 574.23834489 658.88639184 574.24093353 662.2460022 574.24357605 C662.91485066 574.24410067 663.58369913 574.24462529 664.27281573 574.24516581 C675.10802307 574.25387253 685.94320921 574.26964397 696.77840397 574.28801836 C707.89322304 574.30670998 719.00803345 574.31767819 730.12286782 574.32188976 C736.36719864 574.32450159 742.61148138 574.33065832 748.85579681 574.34517288 C754.72929908 574.35871531 760.6027333 574.36294218 766.47624969 574.35992813 C768.63540008 574.36047979 770.79455266 574.36447704 772.95368958 574.37212372 C775.89510396 574.38203267 778.83625942 574.37969644 781.77767944 574.3742218 C783.06756102 574.38296033 783.06756102 574.38296033 784.38350081 574.39187539 C788.37502017 574.37171082 791.37741308 574.32215116 794.76260376 572.13371277 C795.67127149 569.40770958 795.89436627 567.79119413 795.91409302 564.98570251 C795.92243668 564.14186508 795.93078033 563.29802765 795.93937683 562.42861938 C795.94356125 561.50597794 795.94774567 560.58333649 795.95205688 559.63273621 C795.96035019 558.65843155 795.96864349 557.68412689 795.97718811 556.68029785 C795.99459746 554.56211223 796.00976185 552.44390725 796.02296448 550.32569122 C796.0439898 546.97138452 796.07101544 543.6171741 796.09963989 540.26292419 C796.15936498 533.13655749 796.21147058 526.0101456 796.26260376 518.88371277 C796.32188417 510.63957135 796.38428712 502.39547689 796.45448303 494.15142059 C796.48099233 490.8505911 796.50185008 487.54975676 796.52249146 484.24888611 C796.53910341 482.21667763 796.55597602 480.18447126 796.57315063 478.15226746 C796.57733505 477.23772293 796.58151947 476.32317841 796.58583069 475.38092041 C796.63314676 470.53163694 796.95019606 465.91643554 797.76260376 461.13371277 C803.149233 460.02395302 808.37785192 459.96870657 813.85122681 459.94425964 C814.85190186 459.93596634 815.8525769 459.92767303 816.88357544 459.91912842 C819.04919065 459.90177545 821.21482413 459.88659582 823.38046837 459.87335205 C826.80532528 459.85227195 830.23008995 459.82525582 833.65489197 459.79667664 C842.15636588 459.72695209 850.65790538 459.6673829 859.15945435 459.60765076 C866.35196232 459.55675198 873.54441945 459.5019514 880.73685646 459.4418335 C884.115434 459.41522962 887.49401625 459.39443714 890.87263489 459.37382507 C892.9358137 459.35722662 894.99899033 459.34035518 897.06216431 459.32316589 C898.00507828 459.31898148 898.94799225 459.31479706 899.91947937 459.31048584 C900.78159027 459.30214218 901.64370117 459.29379852 902.53193665 459.28520203 C903.28093577 459.28004829 904.0299349 459.27489456 904.80163097 459.26958466 C906.97758905 459.20088226 906.97758905 459.20088226 909.76260376 458.13371277 C910.89869612 455.86152805 910.89651407 454.59862663 910.91409302 452.07472229 C910.92243668 451.22529053 910.93078033 450.37585876 910.93937683 449.50068665 C910.94356125 448.56667023 910.94774567 447.63265381 910.95205688 446.67033386 C910.96035019 445.68802795 910.96864349 444.70572205 910.97718811 443.69364929 C910.99461722 441.55471298 911.00977615 439.41575728 911.02296448 437.27679062 C911.04396823 433.88868455 911.07099694 430.50067465 911.09963989 427.11262512 C911.1594145 419.91135804 911.21147358 412.7100457 911.26260376 405.50871277 C911.32189291 397.18490455 911.38434659 388.86114281 911.45448303 380.53741837 C911.48097291 377.20506019 911.50184471 373.87269722 911.52249146 370.54029846 C911.53910664 368.48468305 911.55597954 366.4290697 911.57315063 364.37345886 C911.57733505 363.45158783 911.58151947 362.5297168 911.58583069 361.57991028 C911.63622127 356.34768301 912.01011794 351.31309768 912.76260376 346.13371277 C915.64424671 345.31287163 918.2170496 345.00233902 921.2096405 344.98222351 C922.09428986 344.97387985 922.97893921 344.96553619 923.89039612 344.9569397 C924.85312943 344.95275528 925.81586273 344.94857086 926.80776978 344.94425964 C927.82765991 344.93596634 928.84755005 344.92767303 929.89834595 344.91912842 C932.11201494 344.90173741 934.32570224 344.886568 936.5394001 344.87335205 C940.03970772 344.8523234 943.53992319 344.8253016 947.04017639 344.79667664 C955.73198876 344.72684428 964.42386678 344.66741045 973.11575317 344.60765076 C980.46208034 344.55675488 987.80835767 344.5019432 995.1546154 344.4418335 C998.6085297 344.41521692 1002.06244855 344.39442935 1005.5164032 344.37382507 C1007.6265485 344.35722569 1009.73669169 344.34035417 1011.84683228 344.32316589 C1012.81158981 344.31898148 1013.77634735 344.31479706 1014.77033997 344.31048584 C1015.65216949 344.30214218 1016.53399902 344.29379852 1017.44255066 344.28520203 C1018.20889611 344.28004829 1018.97524157 344.27489456 1019.76480961 344.26958466 C1021.97182663 344.20348669 1021.97182663 344.20348669 1024.76260376 343.13371277 C1025.89869612 340.86152805 1025.89651407 339.59862663 1025.91409302 337.07472229 C1025.92660851 335.80057465 1025.92660851 335.80057465 1025.93937683 334.50068665 C1025.94356125 333.56667023 1025.94774567 332.63265381 1025.95205688 331.67033386 C1025.96035019 330.68802795 1025.96864349 329.70572205 1025.97718811 328.69364929 C1025.99461722 326.55471298 1026.00977615 324.41575728 1026.02296448 322.27679062 C1026.04396823 318.88868455 1026.07099694 315.50067465 1026.09963989 312.11262512 C1026.1594145 304.91135804 1026.21147358 297.7100457 1026.26260376 290.50871277 C1026.32189291 282.18490455 1026.38434659 273.86114281 1026.45448303 265.53741837 C1026.48097291 262.20506019 1026.50184471 258.87269722 1026.52249146 255.54029846 C1026.53910664 253.48468305 1026.55597954 251.4290697 1026.57315063 249.37345886 C1026.57733505 248.45158783 1026.58151947 247.5297168 1026.58583069 246.57991028 C1026.63622127 241.34768301 1027.01011794 236.31309768 1027.76260376 231.13371277 C1032.74422586 229.83189034 1037.70330959 229.9742133 1042.81362915 229.96012878 C1044.3266436 229.95009827 1044.3266436 229.95009827 1045.870224 229.93986511 C1048.05659348 229.92583608 1050.24297743 229.91393523 1052.42936897 229.90391731 C1055.88803015 229.8874871 1059.34658354 229.8642503 1062.80519104 229.83901978 C1072.63737616 229.76828486 1082.46960403 229.70802814 1092.3019104 229.65690613 C1098.31830262 229.62514814 1104.33456856 229.58388684 1110.35085869 229.53671074 C1112.64459405 229.52067894 1114.93835845 229.50836284 1117.23213387 229.49980354 C1120.43521111 229.48767448 1123.63799009 229.46353644 1126.8409729 229.43669128 C1127.79121338 229.43610214 1128.74145386 229.435513 1129.7204895 229.43490601 C1130.59383438 229.42518768 1131.46717926 229.41546936 1132.36698914 229.40545654 C1133.50211488 229.39910863 1133.50211488 229.39910863 1134.66017246 229.39263248 C1137.14566815 229.08653742 1138.69710197 228.55827575 1140.76260376 227.13371277 C1141.88757173 224.3353154 1141.89623341 221.58336107 1141.92082214 218.59056091 C1141.93061096 217.68474777 1141.94039978 216.77893463 1141.95048523 215.84567261 C1141.95624069 214.85952469 1141.96199615 213.87337677 1141.96792603 212.85734558 C1141.98277542 211.29102135 1141.98277542 211.29102135 1141.9979248 209.6930542 C1142.02951624 206.24100513 1142.05428804 202.7889423 1142.07901001 199.33683777 C1142.09958156 196.94358461 1142.12057809 194.55033508 1142.14198303 192.15708923 C1142.19718287 185.85739572 1142.24660143 179.55766953 1142.29483032 173.25791931 C1142.34506053 166.82976879 1142.40073868 160.40166573 1142.45596313 153.97355652 C1142.5635192 141.36031609 1142.66515487 128.74703513 1142.76260376 116.13371277 C1147.68677724 114.85541666 1152.56430726 114.97435073 1157.61416626 114.96012878 C1158.60172913 114.95344177 1159.58929199 114.94675476 1160.60678101 114.93986511 C1162.7473122 114.92583705 1164.88785815 114.91393589 1167.02841187 114.90391731 C1170.41593822 114.88748154 1173.80335478 114.86424393 1177.19082642 114.83901978 C1186.82081624 114.76830448 1196.45084987 114.7080651 1206.08096313 114.65690613 C1211.97416794 114.6251229 1217.86724448 114.58385379 1223.76034546 114.53671074 C1226.00580543 114.52069272 1228.2512949 114.50837023 1230.49679565 114.49980354 C1233.63501021 114.4876552 1236.77292269 114.46350843 1239.91104126 114.43669128 C1241.30295685 114.43580757 1241.30295685 114.43580757 1242.72299194 114.43490601 C1249.78973057 114.50368859 1249.78973057 114.50368859 1255.76260376 111.13371277 C1257.53995292 99.86535286 1256.98727859 88.11168591 1257.07901001 76.74308777 C1257.09961642 74.58547094 1257.12061376 72.42785782 1257.14198303 70.27024841 C1257.19682339 64.6282707 1257.24639825 58.9862589 1257.29483032 53.34422302 C1257.34532547 47.57219965 1257.40086438 41.80022496 1257.45596313 36.02824402 C1257.56307851 24.73010867 1257.66462435 13.43193079 1257.76260376 2.13371277 C1262.64344264 -0.42775332 1267.37043008 -0.14127887 1272.73770142 -0.10920715 C1273.73823044 -0.1111055 1274.73875946 -0.11300385 1275.76960754 -0.11495972 C1279.07204051 -0.11866017 1282.37425288 -0.10797455 1285.67666626 -0.09675598 C1287.97161839 -0.09556378 1290.26657101 -0.0951111 1292.56152344 -0.09536743 C1297.36816467 -0.09380389 1302.17473129 -0.08552308 1306.98135376 -0.07209778 C1313.14981401 -0.05508906 1319.3181924 -0.05128407 1325.48667336 -0.05204296 C1330.22376286 -0.05177139 1334.9608344 -0.04629257 1339.69791794 -0.03904152 C1341.97296386 -0.0358546 1344.24801181 -0.03388739 1346.52305984 -0.03314781 C1349.69750713 -0.0309856 1352.87186666 -0.0222444 1356.04629517 -0.0115509 C1357.46302269 -0.01223068 1357.46302269 -0.01223068 1358.90837097 -0.01292419 C1359.77192703 -0.00865921 1360.63548309 -0.00439423 1361.52520752 0 C1362.27550547 0.00167584 1363.02580341 0.00335169 1363.79883766 0.00507832 C1365.76260376 0.13371277 1365.76260376 0.13371277 1368.76260376 1.13371277 C1369.81230172 4.28280666 1369.88687547 6.47581022 1369.88565159 9.78152752 C1369.88764264 10.96488837 1369.88963369 12.14824922 1369.89168507 13.36746949 C1369.88877223 14.67387149 1369.88585939 15.98027349 1369.88285828 17.32626343 C1369.88329412 18.72303532 1369.88416928 20.11980712 1369.88544744 21.5165785 C1369.88768977 25.36354279 1369.88367468 29.21047939 1369.87866938 33.05744016 C1369.87436133 37.20262043 1369.87581156 41.34779908 1369.87657166 45.49298096 C1369.87709666 52.67769937 1369.87395226 59.86240873 1369.86833382 67.04712486 C1369.86021571 77.43508976 1369.85760328 87.82305027 1369.85634582 98.211018 C1369.8541558 115.06375143 1369.84749704 131.91648002 1369.83804321 148.76921082 C1369.82886783 165.14258296 1369.82178761 181.5159538 1369.8175354 197.889328 C1369.81727268 198.89814434 1369.81700995 199.90696067 1369.81673927 200.9463472 C1369.81543426 206.00715137 1369.81417054 211.06795555 1369.81292737 216.12875974 C1369.80255628 258.13041411 1369.78493929 300.13206316 1369.76260376 342.13371277 C1366.77956327 343.7037432 1364.79228995 344.3854691 1361.404953 344.39872742 C1360.54002228 344.40700058 1359.67509155 344.41527374 1358.78395081 344.42379761 C1357.84306107 344.4228157 1356.90217133 344.4218338 1355.93276978 344.42082214 C1354.93559937 344.42765518 1353.93842896 344.43448822 1352.91104126 344.44152832 C1350.7464937 344.4551145 1348.58191405 344.46416895 1346.41732979 344.46923828 C1342.99201886 344.477522 1339.56697522 344.49802231 1336.14173889 344.52177429 C1328.86956678 344.57001843 1321.59736807 344.60294375 1314.32510376 344.63371277 C1305.90197844 344.66936988 1297.47898375 344.71127678 1289.05598259 344.76965332 C1285.68079276 344.78972911 1282.30570281 344.79804304 1278.9304657 344.80595398 C1276.86091753 344.81892656 1274.79137269 344.83244689 1272.72183228 344.84660339 C1271.78296677 344.84562149 1270.84410126 344.84463959 1269.87678528 344.84362793 C1263.52880191 344.79457105 1263.52880191 344.79457105 1257.76260376 347.13371277 C1254.24508246 354.97949495 1255.52137836 365.29169563 1255.60244751 373.75480652 C1255.60874771 375.2638408 1255.61397775 376.77287988 1255.61820984 378.28192139 C1255.63142905 382.24464156 1255.65576332 386.20720369 1255.68356323 390.16984558 C1255.73197363 397.19810683 1255.7651682 404.22642527 1255.78994751 411.25480652 C1255.79296246 412.01200359 1255.7959774 412.76920067 1255.79908371 413.54934311 C1255.84883554 428.09655861 1255.44019485 442.60099393 1254.76260376 457.13371277 C1253.11260376 457.46371277 1251.46260376 457.79371277 1249.76260376 458.13371277 C1249.76260376 458.46371277 1249.76260376 458.79371277 1249.76260376 459.13371277 C1248.48109436 459.14179962 1247.19958496 459.14988647 1245.87924194 459.15821838 C1233.8131593 459.23564062 1221.74718997 459.32337005 1209.68125534 459.42123985 C1203.4777628 459.47122532 1197.27428748 459.51755528 1191.07070923 459.55558777 C1185.08600412 459.59241196 1179.10144228 459.63876431 1173.11685944 459.69177628 C1170.83149982 459.71033543 1168.54610948 459.72543774 1166.26070404 459.73705673 C1163.06424734 459.75389294 1159.86811984 459.78292208 1156.67178345 459.81486511 C1155.72303848 459.8170253 1154.77429352 459.81918549 1153.79679871 459.82141113 C1152.92464218 459.83257462 1152.05248566 459.8437381 1151.15390015 459.85523987 C1150.02009478 459.86353601 1150.02009478 459.86353601 1148.86338425 459.87199974 C1146.36243836 460.18356495 1144.83276755 460.68311699 1142.76260376 462.13371277 C1140.2439199 468.36035162 1140.47637902 475.68769543 1140.50723267 482.30924988 C1140.50361221 483.27149475 1140.49999176 484.23373962 1140.4962616 485.22514343 C1140.48941673 487.29465735 1140.48685285 489.36418912 1140.48820877 491.43371391 C1140.48918011 494.70774304 1140.47616396 497.98144941 1140.45922852 501.25543213 C1140.41311202 510.55671296 1140.38831701 519.8579561 1140.38174438 529.15934753 C1140.37674295 534.86386791 1140.35257716 540.56804374 1140.31641769 546.27244759 C1140.30660141 548.44420368 1140.30429766 550.61600702 1140.30958939 552.78777885 C1140.31662389 555.81354389 1140.29945722 558.83827065 1140.27676392 561.86393738 C1140.28493637 562.76316422 1140.29310883 563.66239105 1140.30152893 564.58886719 C1140.22276596 570.46741295 1140.22276596 570.46741295 1138.34384155 573.18803406 C1134.24796425 574.68862574 1130.2774251 574.55544115 1125.94863892 574.53434753 C1124.9530748 574.5413266 1123.95751068 574.54830566 1122.93177795 574.55549622 C1119.63832169 574.57550322 1116.34517795 574.5749729 1113.05166626 574.57511902 C1110.7624629 574.58688865 1108.47326722 574.60025184 1106.18408203 574.61514282 C1100.15299064 574.65137167 1094.12196731 574.67154133 1088.09078979 574.68669128 C1078.44404965 574.7114946 1068.79746007 574.75119343 1059.15085983 574.80859184 C1055.78179154 574.82491253 1052.41286516 574.82869821 1049.04376221 574.831604 C1046.97429155 574.84138228 1044.90482311 574.85164588 1042.83535767 574.86247253 C1041.90008743 574.85991959 1040.9648172 574.85736664 1040.00120544 574.85473633 C1035.18714995 574.89255641 1031.28370002 575.25877472 1026.76260376 577.13371277 C1025.44323371 582.15148385 1025.61047468 587.15989781 1025.60488892 592.30827332 C1025.5998082 593.32991577 1025.59472748 594.35155823 1025.5894928 595.40415955 C1025.57880759 597.61836584 1025.57018019 599.83258281 1025.56337357 602.04680443 C1025.55157696 605.54692605 1025.53212517 609.04692473 1025.51025391 612.54699707 C1025.44864036 622.49684092 1025.39446847 632.4466698 1025.36123657 642.39665222 C1025.34035671 648.48440085 1025.30511603 654.5719214 1025.26047897 660.65954018 C1025.24627436 662.98283528 1025.23758655 665.30617069 1025.23442459 667.62950706 C1025.22954616 670.86902858 1025.2064707 674.10793763 1025.17910767 677.34733582 C1025.1821138 678.31411758 1025.18511993 679.28089935 1025.18821716 680.27697754 C1025.17712418 681.15598724 1025.16603119 682.03499695 1025.15460205 682.94064331 C1025.14963683 684.08959595 1025.14963683 684.08959595 1025.1445713 685.26175976 C1024.76260376 687.13371277 1024.76260376 687.13371277 1021.76260376 689.13371277 C1019.83565903 689.39263248 1019.83565903 689.39263248 1017.61459351 689.40545654 C1016.77075607 689.41517487 1015.92691864 689.42489319 1015.05751038 689.43490601 C1014.13486893 689.43549515 1013.21222748 689.43608429 1012.2616272 689.43669128 C1010.80017021 689.44935028 1010.80017021 689.44935028 1009.30918884 689.46226501 C1006.08011398 689.48810675 1002.85113075 689.50020136 999.62197876 689.51261902 C997.37858352 689.52879202 995.13519533 689.5459718 992.89181519 689.56411743 C986.97619903 689.60987302 981.06057339 689.6446331 975.14486694 689.67631531 C965.6899379 689.72810921 956.23511353 689.79350447 946.78031158 689.86453056 C943.47947595 689.88730851 940.17865333 689.90361971 936.8777771 689.91925049 C934.84556948 689.93266515 932.81336316 689.94628064 930.78115845 689.96012878 C929.86661392 689.96274216 928.9520694 689.96535553 928.0098114 689.9680481 C923.17636899 690.00704101 918.48961998 690.06712039 913.76260376 691.13371277 C909.95562553 696.84418011 910.60307691 703.50191163 910.57315063 710.14640808 C910.56485733 711.13893585 910.55656403 712.13146362 910.54801941 713.15406799 C910.53066802 715.30167835 910.51548797 717.44930711 910.50224304 719.59694672 C910.48116574 722.99212512 910.4541501 726.38721038 910.42556763 729.78233337 C910.35583979 738.2091049 910.29623623 746.63594237 910.23654175 755.06278992 C910.18567362 762.19357616 910.13088857 769.32431066 910.07072449 776.45502472 C910.04409479 779.80650308 910.02331902 783.15798617 910.00271606 786.50950623 C909.98612048 788.55253839 909.9692493 790.59556835 909.95205688 792.63859558 C909.94787247 793.57575409 909.94368805 794.5129126 909.93937683 795.47846985 C909.93103317 796.33079193 909.92268951 797.18311401 909.91409302 798.06126404 C909.90893929 798.80381062 909.90378555 799.54635719 909.89847565 800.31140518 C909.76260376 802.13371277 909.76260376 802.13371277 908.76260376 804.13371277 C907.47744873 804.12705093 906.1922937 804.1203891 904.86819458 804.11352539 C892.74460964 804.05265579 880.6210558 804.00771194 868.4973526 803.97827625 C862.26474122 803.96263425 856.03225341 803.94142241 849.79971313 803.90739441 C843.78264657 803.87474919 837.76569872 803.85684873 831.74855042 803.84908104 C829.455288 803.84354684 827.16203194 803.83273991 824.86882019 803.8165226 C821.65163232 803.79468013 818.43493223 803.79174875 815.21768188 803.7931366 C814.27396729 803.78235077 813.33025269 803.77156494 812.35794067 803.76045227 C806.50932216 803.78767323 802.01999119 804.4677211 796.76260376 807.13371277 C795.6961739 809.91014131 795.63285717 812.58372024 795.61784363 815.53605652 C795.60749588 816.84824158 795.60749588 816.84824158 795.59693909 818.18693542 C795.59432571 819.13874695 795.59171234 820.09055847 795.58901978 821.07121277 C795.58233276 822.07974304 795.57564575 823.08827332 795.5687561 824.12736511 C795.55471238 826.31648046 795.54281617 828.5056104 795.5328083 830.69474792 C795.51639713 834.15752991 795.49316046 837.62020339 795.46791077 841.08293152 C795.39712801 850.92792867 795.33693976 860.77296933 795.28579712 870.61808777 C795.25403769 876.63981094 795.21277368 882.66140798 795.16560173 888.68302917 C795.14956802 890.97955563 795.1372528 893.27611113 795.12869453 895.57267761 C795.11656473 898.78065333 795.09242567 901.98833132 795.06558228 905.19621277 C795.06499313 906.14802429 795.06440399 907.09983582 795.063797 908.08049011 C795.05407867 908.95528015 795.04436035 909.83007019 795.03434753 910.73136902 C795.03011559 911.48941833 795.02588366 912.24746765 795.02152348 913.02848816 C794.72790619 915.41583176 793.94669159 917.05604768 792.76260376 919.13371277 C763.73885887 919.22705246 734.7151364 919.29764111 705.69127178 919.34096146 C703.01135432 919.34504099 700.331437 919.34920627 697.65151978 919.35343933 C696.65233953 919.35501319 696.65233953 919.35501319 695.63297383 919.35661885 C684.83908946 919.37403677 674.04529007 919.40558203 663.25145616 919.44232395 C652.18071908 919.4796949 641.11001673 919.50164093 630.03921825 919.51006675 C623.81888887 919.51529259 617.59875242 919.52761925 611.37848473 919.556633 C605.52873388 919.58369852 599.6792562 919.59217571 593.8294487 919.58614349 C591.67792974 919.58724771 589.52640204 919.59525401 587.37493706 919.61053467 C584.44605446 919.63032374 581.51821448 919.62569247 578.58930969 919.61473083 C577.30089527 919.63220788 577.30089527 919.63220788 575.98645228 919.650038 C570.29208832 919.59210145 570.29208832 919.59210145 567.73501396 917.37837505 C566.69104729 914.96853546 566.38429363 913.35639665 566.37733459 910.73809814 C566.36768677 909.86475327 566.35803894 908.99140839 566.34809875 908.09159851 C566.35267593 907.14135803 566.35725311 906.19111755 566.36196899 905.21208191 C566.35498993 904.20515793 566.34801086 903.19823395 566.34082031 902.16079712 C566.32081409 898.83006969 566.32134365 895.49965125 566.32119751 892.16886902 C566.30942874 889.85484987 566.29606576 887.54083832 566.28117371 885.22683716 C566.24494608 879.13124679 566.22477448 873.03572379 566.20962524 866.94004822 C566.18481924 857.18636082 566.14517301 847.43282239 566.08772469 837.67927361 C566.07138665 834.27082732 566.06761688 830.86252117 566.06471252 827.45404053 C566.05493602 825.36427061 566.04467271 823.27450289 566.03384399 821.18473816 C566.03639694 820.23652191 566.03894989 819.28830566 566.0415802 818.31135559 C566.16910897 811.88193492 566.16910897 811.88193492 563.76260376 806.13371277 C558.18056628 803.70316054 552.65943751 803.88817975 546.6522522 803.98600769 C545.66118469 803.9937471 544.67011719 804.00148651 543.64901733 804.00946045 C541.50737379 804.02705329 539.365763 804.0490791 537.22420502 804.07507896 C533.83711001 804.11458825 530.45022209 804.13889918 527.06295776 804.15869141 C517.43623032 804.21667337 507.80981633 804.29430529 498.1835022 804.40104675 C492.28809303 804.46534784 486.3929324 804.50549501 480.49723053 804.53022194 C478.25001485 804.54450956 476.00283888 804.56815565 473.75582123 804.60123253 C470.62202054 804.64675186 467.48946559 804.66169518 464.3553772 804.66960144 C463.42338501 804.69071991 462.49139282 804.71183838 461.53115845 804.7335968 C455.38448418 804.70487029 455.38448418 804.70487029 452.68809509 802.22840881 C451.36608238 797.80780824 451.33979825 793.6756166 451.36196899 789.08268738 C451.35498993 788.07401108 451.34801086 787.06533478 451.34082031 786.02609253 C451.32084429 782.69599549 451.32134377 779.36620814 451.32119751 776.03605652 C451.30942725 773.72107099 451.2960639 771.40609305 451.28117371 769.09112549 C451.24497444 762.9984546 451.22478111 756.90585105 451.20962524 750.81309509 C451.18480048 741.05712016 451.14521765 731.30129404 451.08772469 721.54545784 C451.07137369 718.13530138 451.06761603 714.72528486 451.06471252 711.31509399 C451.05493801 709.22850806 451.04467503 707.14192434 451.03384399 705.05534363 C451.03639694 704.10510315 451.03894989 703.15486267 451.0415802 702.17582703 C451.0347522 701.30248215 451.02792419 700.42913727 451.02088928 699.52932739 C451.01843783 698.39420165 451.01843783 698.39420165 451.01593685 697.23614407 C450.72162133 694.79359637 450.07530602 693.20921839 448.76260376 691.13371277 C443.61920336 688.58732887 438.36882819 688.87597989 432.76577759 688.93840027 C431.27939537 688.94278107 431.27939537 688.94278107 429.76298523 688.94725037 C427.61861479 688.9548426 425.47425678 688.96705487 423.32993507 688.98338318 C419.93870661 689.0089459 416.54763484 689.02194976 413.15632629 689.03166199 C405.96251498 689.05449471 398.7688332 689.09300326 391.57510376 689.13371277 C383.22880168 689.18086937 374.88257278 689.2216476 366.53616905 689.24559021 C363.19071528 689.25858236 359.84548601 689.28359342 356.50010681 689.30900574 C354.45715533 689.31626819 352.41420176 689.32297197 350.37124634 689.32902527 C349.43768311 689.33935791 348.50411987 689.34969055 347.54226685 689.3603363 C346.6885701 689.36047729 345.83487335 689.36061829 344.95530701 689.36076355 C344.21368222 689.36520477 343.47205744 689.369646 342.70795918 689.3742218 C340.76260376 689.13371277 340.76260376 689.13371277 337.76260376 687.13371277 C336.20686993 682.48538568 336.60299061 677.33393432 336.58901978 672.48161316 C336.58233276 671.51516373 336.57564575 670.54871429 336.5687561 669.55297852 C336.55472905 667.45828563 336.54282758 665.36357766 336.5328083 663.26886177 C336.51636674 659.95247019 336.49312829 656.6361905 336.46791077 653.31985474 C336.39721592 643.89206026 336.33699469 634.46422085 336.28579712 625.03630066 C336.25398752 619.26628323 336.21271037 613.49639611 336.16560173 607.7264843 C336.14959807 605.52929974 336.13726896 603.3320852 336.12869453 601.13485909 C336.11652604 598.06150718 336.0923703 594.98846123 336.06558228 591.91520691 C336.06469856 590.55673645 336.06469856 590.55673645 336.063797 589.17082214 C336.01013082 584.51874312 335.89486649 580.37923581 333.76260376 576.13371277 C330.95966353 575.13099483 328.3178149 575.00565445 325.36026001 574.99568176 C324.48546997 574.99022842 323.61067993 574.98477509 322.7093811 574.97915649 C321.28166382 574.977593 321.28166382 574.977593 319.82510376 574.97599792 C318.81657349 574.97091721 317.80804321 574.96583649 316.76895142 574.96060181 C314.57983263 574.94990528 312.39070296 574.94128229 310.2015686 574.93448257 C306.73878252 574.92269417 303.27612119 574.90324288 299.81338501 574.88136292 C289.96837493 574.8197335 280.12337871 574.76563665 270.27822876 574.73234558 C264.25646166 574.71143426 258.23492375 574.67616327 252.21328735 574.63158798 C249.91676526 574.6174038 247.62020263 574.60870012 245.32363892 574.6055336 C242.11554864 574.60064064 238.90807028 574.57752527 235.70010376 574.55021667 C234.74829224 574.55322281 233.79648071 574.55622894 232.81582642 574.55932617 C229.33795333 574.51522416 226.45486689 574.38504423 223.17364502 573.19377136 C220.76768696 569.68117771 221.21117089 565.90725269 221.2484436 561.75627136 C221.24131851 560.79493286 221.23419342 559.83359436 221.22685242 558.84312439 C221.20751058 555.65592631 221.2158653 552.46938795 221.22354126 549.28215027 C221.21363709 547.06596403 221.20169691 544.84978604 221.18780518 542.63362122 C221.15536765 536.78775046 221.14504585 530.942067 221.14096069 525.09611511 C221.13222466 515.76031389 221.0965691 506.42466743 221.04878616 497.08899307 C221.03623958 493.83360748 221.03695655 490.57841809 221.0390625 487.32301331 C221.03247685 485.31118116 221.02546954 483.29935033 221.01797485 481.28752136 C221.02209885 480.38951813 221.02622284 479.49151489 221.0304718 478.56629944 C221.01447214 470.1465383 221.01447214 470.1465383 218.76260376 462.13371277 C215.97842132 460.22824834 213.68660511 459.88259862 210.36026001 459.87542725 C209.04807495 459.86518524 209.04807495 459.86518524 207.7093811 459.85473633 C206.75756958 459.85728928 205.80575806 459.85984222 204.82510376 459.86247253 C203.81657349 459.85724579 202.80804321 459.85201904 201.76895142 459.84663391 C199.57983964 459.8363948 197.39070353 459.83061366 195.2015686 459.82875252 C191.73872465 459.82509379 188.27616835 459.80838136 184.81338501 459.78799438 C174.96838723 459.73252798 165.12334726 459.70185948 155.27822876 459.67741394 C149.25647806 459.66155966 143.23493215 459.63136482 137.21328735 459.59264946 C134.91675995 459.58098246 132.62019596 459.57506896 130.32363892 459.57496834 C127.11557561 459.57477678 123.90807924 459.55654684 120.70010376 459.53434753 C119.74829224 459.53892471 118.79648071 459.54350189 117.81582642 459.54821777 C114.34992478 459.50999326 111.4533953 459.37732804 108.17364502 458.22068787 C105.72319563 454.59639494 106.2118511 450.60528121 106.2484436 446.34147644 C106.24131851 445.33630478 106.23419342 444.33113312 106.22685242 443.29550171 C106.20751328 439.96403056 106.21586323 436.6331905 106.22354126 433.30168152 C106.21363938 430.98862781 106.20170009 428.675582 106.18780518 426.36254883 C106.15537133 420.26399905 106.14504524 414.16562888 106.14096069 408.06700134 C106.1322216 398.31560727 106.09670151 388.56436143 106.04878616 378.81308937 C106.03619702 375.40633263 106.03695987 371.99976237 106.0390625 368.59298706 C106.03248064 366.50003415 106.02547407 364.40708252 106.01797485 362.31413269 C106.02209885 361.36794067 106.02622284 360.42174866 106.0304718 359.44688416 C106.00143178 354.70483066 105.96027948 350.45452573 103.76260376 346.13371277 C100.98989214 345.14922015 98.37131768 345.00095282 95.44723511 344.97549438 C94.59190689 344.96570557 93.73657867 344.95591675 92.85533142 344.9458313 C91.92528793 344.94007584 90.99524445 344.93432037 90.03701782 344.9283905 C89.05132309 344.91849091 88.06562836 344.90859131 87.05006409 344.89839172 C83.79281006 344.86681062 80.53554145 344.8420326 77.27822876 344.81730652 C75.01949688 344.79673407 72.76076883 344.77573752 70.50204468 344.7543335 C64.55745542 344.69914288 58.6128316 344.64972027 52.66818237 344.60148621 C46.60196862 344.55124925 40.53580507 344.49557463 34.46963501 344.44035339 C22.56733414 344.33280861 10.66498969 344.23135542 -1.23739624 344.13371277 C-1.23739624 343.80371277 -1.23739624 343.47371277 -1.23739624 343.13371277 C-3.54739624 342.80371277 -5.85739624 342.47371277 -8.23739624 342.13371277 C-9.56565359 314.02951536 -9.3860206 285.90343896 -9.37269569 257.77550269 C-9.37038894 252.76617491 -9.37013641 247.75685052 -9.37121201 242.74752235 C-9.37136524 242.02560281 -9.37151847 241.30368327 -9.37167635 240.55988738 C-9.37199619 239.09169365 -9.3723204 237.62349993 -9.37264894 236.1553062 C-9.37548065 222.48041776 -9.3722545 208.80553609 -9.36684857 195.13064877 C-9.36239322 183.50267907 -9.36315052 171.87471939 -9.36776733 160.24674988 C-9.37317274 146.62697 -9.37519527 133.00719603 -9.37215507 119.38741523 C-9.37183665 117.92223569 -9.37152228 116.45705615 -9.37121201 114.9918766 C-9.37105773 114.2716778 -9.37090345 113.551479 -9.3707445 112.80945599 C-9.36989625 107.83595832 -9.37132542 102.86246458 -9.37369156 97.88896751 C-9.38485429 72.06735607 -9.38310112 46.24988743 -8.79159546 20.4337616 C-8.77218344 19.53964235 -8.75277142 18.6455231 -8.73277116 17.72430933 C-8.677566 15.27100425 -8.61512342 12.8180262 -8.5491333 10.36499023 C-8.53283772 9.65121818 -8.51654214 8.93744612 -8.49975276 8.20204461 C-8.35360764 3.36613557 -8.35360764 3.36613557 -7.23739624 1.13371277 C-4.47778283 0.21384163 -2.8440915 0.00635248 0 0 Z " fill="#000000" transform="translate(319.2373962402344,539.8662872314453)"/>
<path d="" fill="#000000" transform="translate(0,0)"/>
</svg>
